<svg width="42" height="42" viewBox="0 0 42 42" fill="none" xmlns="http://www.w3.org/2000/svg">
<g clip-path="url(#clip0_1_1380)">
<path d="M14.8272 18.9512C15.2561 17.6537 16.0838 16.5247 17.1923 15.7253C18.3007 14.926 19.6334 14.4971 21 14.4999C22.5492 14.4999 23.9498 15.0499 25.0498 15.9501L28.2508 12.75C26.3002 11.0496 23.8004 10 21 10C16.6642 10 12.9315 12.4732 11.1367 16.0958L14.8272 18.9512Z" fill="#373737"/>
<path d="M24.7033 26.5119C23.7042 27.1563 22.4355 27.5001 21 27.5001C19.6388 27.5029 18.3112 27.0774 17.2052 26.284C16.0992 25.4905 15.2708 24.3693 14.8372 23.079L11.1339 25.8904C12.0426 27.7295 13.4487 29.2769 15.1927 30.3569C16.9368 31.4369 18.9487 32.0061 21 32C23.6886 32 26.2571 31.0439 28.1812 29.25L24.7042 26.5119H24.7033Z" fill="#393939"/>
<path d="M28.1812 29.25C30.1932 27.3727 31.4995 24.5787 31.4995 21C31.4995 20.3492 31.3996 19.6497 31.2502 18.9998H21V23.2504H26.8997C26.6091 24.6795 25.8272 25.7859 24.7043 26.5119L28.1812 29.25Z" fill="#464646"/>
<path d="M14.8372 23.079C14.613 22.4088 14.499 21.7067 14.4999 21C14.4999 20.2832 14.6145 19.5947 14.8272 18.9512L11.1367 16.0958C10.3817 17.62 9.99247 19.2991 9.99998 21C9.99998 22.76 10.4079 24.4192 11.1339 25.8904L14.8372 23.079Z" fill="#5F5F5F"/>
</g>
<g clip-path="url(#clip1_1_1380)">
<path d="M14.8272 18.9512C15.2561 17.6537 16.0838 16.5247 17.1923 15.7253C18.3007 14.926 19.6334 14.4971 21 14.4999C22.5492 14.4999 23.9498 15.0499 25.0498 15.9501L28.2508 12.75C26.3002 11.0496 23.8004 10 21 10C16.6642 10 12.9315 12.4732 11.1367 16.0958L14.8272 18.9512Z" fill="#373737"/>
<path d="M24.7033 26.5119C23.7042 27.1563 22.4355 27.5001 21 27.5001C19.6388 27.5029 18.3112 27.0774 17.2052 26.284C16.0992 25.4905 15.2708 24.3693 14.8372 23.079L11.1339 25.8904C12.0426 27.7295 13.4487 29.2769 15.1927 30.3569C16.9368 31.4369 18.9487 32.0061 21 32C23.6886 32 26.2571 31.0439 28.1812 29.25L24.7042 26.5119H24.7033Z" fill="#393939"/>
<path d="M28.1812 29.25C30.1932 27.3727 31.4995 24.5787 31.4995 21C31.4995 20.3492 31.3996 19.6497 31.2502 18.9998H21V23.2504H26.8997C26.6091 24.6795 25.8272 25.7859 24.7043 26.5119L28.1812 29.25Z" fill="#464646"/>
<path d="M14.8372 23.079C14.613 22.4088 14.499 21.7067 14.4999 21C14.4999 20.2832 14.6145 19.5947 14.8272 18.9512L11.1367 16.0958C10.3817 17.62 9.99247 19.2991 9.99998 21C9.99998 22.76 10.4079 24.4192 11.1339 25.8904L14.8372 23.079Z" fill="#5F5F5F"/>
</g>
<rect opacity="0.14" x="0.5" y="0.5" width="41" height="41" rx="20.5" fill="white" stroke="#332218"/>
<defs>
<clipPath id="clip0_1_1380">
<rect width="22" height="22" fill="white" transform="translate(10 10)"/>
</clipPath>
<clipPath id="clip1_1_1380">
<rect width="22" height="22" fill="white" transform="translate(10 10)"/>
</clipPath>
</defs>
</svg>
