<svg width="100" height="37" viewBox="0 0 100 37" fill="none" xmlns="http://www.w3.org/2000/svg">
<rect width="100" height="37" rx="18.5" fill="#FCFCFD"/>
<path d="M20.3878 12.5851C20.6194 12.0484 21.3805 12.0484 21.6121 12.5851L23.0654 15.9531C23.1635 16.1803 23.3794 16.3345 23.6262 16.3536L27.3533 16.6416C27.9512 16.6878 28.1888 17.4385 27.7263 17.8204L24.9234 20.1346C24.7257 20.2978 24.6391 20.5599 24.7007 20.8088L25.5633 24.2944C25.7052 24.8676 25.0869 25.3286 24.578 25.029L21.3382 23.1217C21.1294 22.9988 20.8705 22.9988 20.6617 23.1217L17.4219 25.029C16.913 25.3286 16.2947 24.8676 16.4366 24.2944L17.2992 20.8088C17.3608 20.5599 17.2742 20.2978 17.0765 20.1346L14.2736 17.8204C13.8111 17.4385 14.0487 16.6878 14.6466 16.6416L18.3737 16.3536C18.6205 16.3345 18.8364 16.1803 18.9345 15.9531L20.3878 12.5851Z" fill="#23262F"/>
<path d="M42.088 23.5V12.3H44.136V21.9H49.096V23.5H42.088ZM55.1329 23.692C54.0129 23.692 53.0315 23.4467 52.1889 22.956C51.3569 22.4653 50.7009 21.788 50.2209 20.924C49.7515 20.0493 49.5169 19.0413 49.5169 17.9C49.5169 16.7587 49.7515 15.756 50.2209 14.892C50.7009 14.0173 51.3569 13.3347 52.1889 12.844C53.0315 12.3533 54.0129 12.108 55.1329 12.108C56.2422 12.108 57.2182 12.3533 58.0609 12.844C58.9035 13.3347 59.5595 14.0173 60.0289 14.892C60.4982 15.756 60.7329 16.7587 60.7329 17.9C60.7329 19.0413 60.4982 20.0493 60.0289 20.924C59.5595 21.788 58.9035 22.4653 58.0609 22.956C57.2182 23.4467 56.2422 23.692 55.1329 23.692ZM55.1329 21.852C56.1995 21.852 57.0475 21.5 57.6769 20.796C58.3169 20.092 58.6369 19.1267 58.6369 17.9C58.6369 16.6733 58.3169 15.708 57.6769 15.004C57.0475 14.3 56.1995 13.948 55.1329 13.948C54.0662 13.948 53.2129 14.3 52.5729 15.004C51.9329 15.708 51.6129 16.6733 51.6129 17.9C51.6129 19.1267 51.9329 20.092 52.5729 20.796C53.2129 21.5 54.0662 21.852 55.1329 21.852ZM67.4371 23.692C66.3811 23.692 65.4585 23.452 64.6691 22.972C63.8798 22.492 63.2665 21.8253 62.8291 20.972C62.3918 20.108 62.1731 19.1053 62.1731 17.964C62.1731 16.812 62.3971 15.7987 62.8451 14.924C63.3038 14.0387 63.9491 13.3507 64.7811 12.86C65.6238 12.3587 66.6211 12.108 67.7731 12.108C69.0851 12.108 70.1731 12.4227 71.0371 13.052C71.9011 13.6813 72.4611 14.5507 72.7171 15.66H70.4291C70.2585 15.1373 69.9491 14.732 69.5011 14.444C69.0531 14.1453 68.4771 13.996 67.7731 13.996C66.6531 13.996 65.7891 14.3533 65.1811 15.068C64.5731 15.772 64.2691 16.7427 64.2691 17.98C64.2691 19.2173 64.5678 20.1773 65.1651 20.86C65.7731 21.532 66.5945 21.868 67.6291 21.868C68.6425 21.868 69.4051 21.596 69.9171 21.052C70.4398 20.4973 70.7545 19.772 70.8611 18.876H68.0291V17.34H72.9251V23.5H71.0371L70.8771 22.028C70.5145 22.5613 70.0611 22.972 69.5171 23.26C68.9731 23.548 68.2798 23.692 67.4371 23.692ZM80.1641 23.692C79.0441 23.692 78.0628 23.4467 77.2201 22.956C76.3881 22.4653 75.7321 21.788 75.2521 20.924C74.7828 20.0493 74.5481 19.0413 74.5481 17.9C74.5481 16.7587 74.7828 15.756 75.2521 14.892C75.7321 14.0173 76.3881 13.3347 77.2201 12.844C78.0628 12.3533 79.0441 12.108 80.1641 12.108C81.2735 12.108 82.2495 12.3533 83.0921 12.844C83.9348 13.3347 84.5908 14.0173 85.0601 14.892C85.5295 15.756 85.7641 16.7587 85.7641 17.9C85.7641 19.0413 85.5295 20.0493 85.0601 20.924C84.5908 21.788 83.9348 22.4653 83.0921 22.956C82.2495 23.4467 81.2735 23.692 80.1641 23.692ZM80.1641 21.852C81.2308 21.852 82.0788 21.5 82.7081 20.796C83.3481 20.092 83.6681 19.1267 83.6681 17.9C83.6681 16.6733 83.3481 15.708 82.7081 15.004C82.0788 14.3 81.2308 13.948 80.1641 13.948C79.0975 13.948 78.2441 14.3 77.6041 15.004C76.9641 15.708 76.6441 16.6733 76.6441 17.9C76.6441 19.1267 76.9641 20.092 77.6041 20.796C78.2441 21.5 79.0975 21.852 80.1641 21.852Z" fill="#23262F"/>
</svg>
